<?xml version="1.0" standalone="no"?><!-- Generator: Gravit.io --><svg xmlns="http://www.w3.org/2000/svg" xmlns:xlink="http://www.w3.org/1999/xlink" style="isolation:isolate" viewBox="0 0 250 250" width="250" height="250"><defs><clipPath id="_clipPath_ZMjc7liIBZ2aA6tp3w6IJn04vECbTMo2"><rect width="250" height="250"/></clipPath></defs><g clip-path="url(#_clipPath_ZMjc7liIBZ2aA6tp3w6IJn04vECbTMo2)"><rect width="250" height="250" style="fill:rgb(0,0,0)" fill-opacity="0"/><defs><filter id="56dTsfchMdJl6vori6g2xbW1hsyr0zb1" x="-200%" y="-200%" width="400%" height="400%" filterUnits="objectBoundingBox" color-interpolation-filters="sRGB"><feOffset xmlns="http://www.w3.org/2000/svg" in="SourceGraphic" dx="0" dy="3"/><feGaussianBlur xmlns="http://www.w3.org/2000/svg" stdDeviation="2.146804531419514" result="pf_100_offsetBlur"/><feComposite xmlns="http://www.w3.org/2000/svg" in="SourceGraphic" in2="pf_100_offsetBlur" result="pf_100_inverse" operator="out"/><feFlood xmlns="http://www.w3.org/2000/svg" flood-color="#FFFFFF" flood-opacity="0.5" result="pf_100_color"/><feComposite xmlns="http://www.w3.org/2000/svg" in="pf_100_color" in2="pf_100_inverse" operator="in" result="pf_100_shadow"/><feComposite xmlns="http://www.w3.org/2000/svg" in="pf_100_shadow" in2="SourceGraphic" operator="over" result="_out_wUXc0Wso5bWVVEi9sNBjOi34vLvfeXOG"/><feOffset xmlns="http://www.w3.org/2000/svg" in="_out_wUXc0Wso5bWVVEi9sNBjOi34vLvfeXOG" dx="0" dy="-3"/><feGaussianBlur xmlns="http://www.w3.org/2000/svg" stdDeviation="2.146804531419514" result="pf_101_offsetBlur"/><feComposite xmlns="http://www.w3.org/2000/svg" in="_out_wUXc0Wso5bWVVEi9sNBjOi34vLvfeXOG" in2="pf_101_offsetBlur" result="pf_101_inverse" operator="out"/><feFlood xmlns="http://www.w3.org/2000/svg" flood-color="#000000" flood-opacity="0.5" result="pf_101_color"/><feComposite xmlns="http://www.w3.org/2000/svg" in="pf_101_color" in2="pf_101_inverse" operator="in" result="pf_101_shadow"/><feComposite xmlns="http://www.w3.org/2000/svg" in="pf_101_shadow" in2="_out_wUXc0Wso5bWVVEi9sNBjOi34vLvfeXOG" operator="over" result="_out_Y7KDVovav2eTV9PW5VYdOztcpgIBPbDh"/><feMerge><feMergeNode in="_out_Y7KDVovav2eTV9PW5VYdOztcpgIBPbDh"/></feMerge></filter></defs><g filter="url(#56dTsfchMdJl6vori6g2xbW1hsyr0zb1)"><path d="M 15 0 L 235 0 C 243.279 0 250 6.721 250 15 L 250 235 C 250 243.279 243.279 250 235 250 L 15 250 C 6.721 250 0 243.279 0 235 L 0 15 C 0 6.721 6.721 0 15 0 Z" style="stroke:none;fill:#243742;stroke-miterlimit:10;"/></g><defs><filter id="T23V2yx4kHXp3ZMlcqJAZxvgMrr3Qdz5" x="-200%" y="-200%" width="400%" height="400%" filterUnits="objectBoundingBox" color-interpolation-filters="sRGB"><feGaussianBlur xmlns="http://www.w3.org/2000/svg" in="SourceGraphic" stdDeviation="2.146804531419514"/><feOffset xmlns="http://www.w3.org/2000/svg" dx="-5" dy="5" result="pf_100_offsetBlur"/><feFlood xmlns="http://www.w3.org/2000/svg" flood-color="#000000" flood-opacity="0.65"/><feComposite xmlns="http://www.w3.org/2000/svg" in2="pf_100_offsetBlur" operator="in" result="pf_100_dropShadow"/><feBlend xmlns="http://www.w3.org/2000/svg" in="SourceGraphic" in2="pf_100_dropShadow" mode="normal"/></filter></defs><g filter="url(#T23V2yx4kHXp3ZMlcqJAZxvgMrr3Qdz5)"><path d=" M 56 184.143 C 56 189.595 60.405 194 65.857 194 L 184.143 194 C 189.595 194 194 189.595 194 184.143 L 194 95.429 L 56 95.429 L 56 184.143 Z  M 105.286 118.839 C 105.286 116.806 106.949 115.143 108.982 115.143 L 141.018 115.143 C 143.051 115.143 144.714 116.806 144.714 118.839 L 144.714 121.304 C 144.714 123.337 143.051 125 141.018 125 L 108.982 125 C 106.949 125 105.286 123.337 105.286 121.304 L 105.286 118.839 Z  M 194 56 L 56 56 C 50.548 56 46.143 60.405 46.143 65.857 L 46.143 80.643 C 46.143 83.354 48.361 85.571 51.071 85.571 L 198.929 85.571 C 201.639 85.571 203.857 83.354 203.857 80.643 L 203.857 65.857 C 203.857 60.405 199.452 56 194 56 Z " id="archive" fill="rgb(255,255,255)"/></g></g></svg>